<svg width="339" height="107" viewBox="0 0 339 107" fill="none" xmlns="http://www.w3.org/2000/svg">
<rect width="339" height="107" rx="14" fill="#211A75"/>
<rect x="21" y="21" width="297" height="65" rx="13" fill="#15132B" stroke="#7879F1" stroke-width="2" stroke-dasharray="4 7"/>
<path d="M115.82 58L112.531 48.4609H112.461C112.477 48.6745 112.495 48.9661 112.516 49.3359C112.536 49.7057 112.555 50.1016 112.57 50.5234C112.586 50.9453 112.594 51.349 112.594 51.7344V58H110.891V46.5781H113.523L116.688 55.6953H116.734L120.008 46.5781H122.633V58H120.844V51.6406C120.844 51.2917 120.849 50.9141 120.859 50.5078C120.875 50.1016 120.891 49.7161 120.906 49.3516C120.927 48.987 120.943 48.6953 120.953 48.4766H120.891L117.477 58H115.82ZM133.109 53.6562C133.109 54.375 133.016 55.013 132.828 55.5703C132.641 56.1276 132.367 56.599 132.008 56.9844C131.648 57.3646 131.216 57.6562 130.711 57.8594C130.206 58.0573 129.635 58.1562 129 58.1562C128.406 58.1562 127.862 58.0573 127.367 57.8594C126.872 57.6562 126.443 57.3646 126.078 56.9844C125.719 56.599 125.44 56.1276 125.242 55.5703C125.044 55.013 124.945 54.375 124.945 53.6562C124.945 52.7031 125.109 51.8958 125.438 51.2344C125.771 50.5677 126.245 50.0599 126.859 49.7109C127.474 49.362 128.206 49.1875 129.055 49.1875C129.852 49.1875 130.555 49.362 131.164 49.7109C131.773 50.0599 132.25 50.5677 132.594 51.2344C132.938 51.901 133.109 52.7083 133.109 53.6562ZM126.836 53.6562C126.836 54.2865 126.911 54.8255 127.062 55.2734C127.219 55.7214 127.458 56.0651 127.781 56.3047C128.104 56.5391 128.521 56.6562 129.031 56.6562C129.542 56.6562 129.958 56.5391 130.281 56.3047C130.604 56.0651 130.841 55.7214 130.992 55.2734C131.143 54.8255 131.219 54.2865 131.219 53.6562C131.219 53.026 131.143 52.4922 130.992 52.0547C130.841 51.612 130.604 51.276 130.281 51.0469C129.958 50.8125 129.539 50.6953 129.023 50.6953C128.263 50.6953 127.708 50.9505 127.359 51.4609C127.01 51.9714 126.836 52.7031 126.836 53.6562ZM137.195 58L133.906 49.3516H135.852L137.633 54.4297C137.747 54.7526 137.852 55.1016 137.945 55.4766C138.039 55.8516 138.104 56.1667 138.141 56.4219H138.203C138.24 56.1562 138.31 55.8385 138.414 55.4688C138.518 55.0938 138.625 54.7474 138.734 54.4297L140.516 49.3516H142.453L139.164 58H137.195ZM147.211 49.1875C147.982 49.1875 148.643 49.3464 149.195 49.6641C149.747 49.9818 150.172 50.4323 150.469 51.0156C150.766 51.599 150.914 52.2969 150.914 53.1094V54.0938H145.141C145.161 54.9323 145.385 55.5781 145.812 56.0312C146.245 56.4844 146.849 56.7109 147.625 56.7109C148.177 56.7109 148.672 56.6589 149.109 56.5547C149.552 56.4453 150.008 56.2865 150.477 56.0781V57.5703C150.044 57.7734 149.604 57.9219 149.156 58.0156C148.708 58.1094 148.172 58.1562 147.547 58.1562C146.698 58.1562 145.951 57.9922 145.305 57.6641C144.664 57.3307 144.161 56.8359 143.797 56.1797C143.438 55.5234 143.258 54.7083 143.258 53.7344C143.258 52.7656 143.422 51.9427 143.75 51.2656C144.078 50.5885 144.539 50.0729 145.133 49.7188C145.727 49.3646 146.419 49.1875 147.211 49.1875ZM147.211 50.5703C146.633 50.5703 146.164 50.7578 145.805 51.1328C145.451 51.5078 145.242 52.0573 145.18 52.7812H149.117C149.112 52.349 149.039 51.9661 148.898 51.6328C148.763 51.2995 148.555 51.0391 148.273 50.8516C147.997 50.6641 147.643 50.5703 147.211 50.5703ZM160.625 58.1562C159.807 58.1562 159.099 57.9974 158.5 57.6797C157.901 57.362 157.44 56.875 157.117 56.2188C156.794 55.5625 156.633 54.7292 156.633 53.7188C156.633 52.6667 156.81 51.8073 157.164 51.1406C157.518 50.474 158.008 49.9818 158.633 49.6641C159.263 49.3464 159.984 49.1875 160.797 49.1875C161.312 49.1875 161.779 49.2396 162.195 49.3438C162.617 49.4427 162.974 49.5651 163.266 49.7109L162.719 51.1797C162.401 51.0495 162.076 50.9401 161.742 50.8516C161.409 50.763 161.089 50.7188 160.781 50.7188C160.276 50.7188 159.854 50.8307 159.516 51.0547C159.182 51.2786 158.932 51.612 158.766 52.0547C158.604 52.4974 158.523 53.0469 158.523 53.7031C158.523 54.3385 158.607 54.875 158.773 55.3125C158.94 55.7448 159.188 56.0729 159.516 56.2969C159.844 56.5156 160.247 56.625 160.727 56.625C161.201 56.625 161.625 56.5677 162 56.4531C162.375 56.3385 162.729 56.1901 163.062 56.0078V57.6016C162.734 57.7891 162.383 57.9271 162.008 58.0156C161.633 58.1094 161.172 58.1562 160.625 58.1562ZM168.484 49.1875C169.578 49.1875 170.404 49.4297 170.961 49.9141C171.523 50.3984 171.805 51.1536 171.805 52.1797V58H170.5L170.148 56.7734H170.086C169.841 57.0859 169.589 57.3438 169.328 57.5469C169.068 57.75 168.766 57.901 168.422 58C168.083 58.1042 167.669 58.1562 167.18 58.1562C166.664 58.1562 166.203 58.0625 165.797 57.875C165.391 57.6823 165.07 57.3906 164.836 57C164.602 56.6094 164.484 56.1146 164.484 55.5156C164.484 54.625 164.815 53.9557 165.477 53.5078C166.143 53.0599 167.148 52.8125 168.492 52.7656L169.992 52.7109V52.2578C169.992 51.6589 169.852 51.2318 169.57 50.9766C169.294 50.7214 168.904 50.5938 168.398 50.5938C167.966 50.5938 167.547 50.6562 167.141 50.7812C166.734 50.9062 166.339 51.0599 165.953 51.2422L165.359 49.9453C165.781 49.7214 166.26 49.5391 166.797 49.3984C167.339 49.2578 167.901 49.1875 168.484 49.1875ZM169.984 53.8672L168.867 53.9062C167.951 53.9375 167.307 54.0938 166.938 54.375C166.568 54.6562 166.383 55.0417 166.383 55.5312C166.383 55.9583 166.51 56.2708 166.766 56.4688C167.021 56.6615 167.357 56.7578 167.773 56.7578C168.409 56.7578 168.935 56.5781 169.352 56.2188C169.773 55.8542 169.984 55.3203 169.984 54.6172V53.8672ZM178.758 49.1875C178.904 49.1875 179.062 49.1953 179.234 49.2109C179.406 49.2266 179.555 49.2474 179.68 49.2734L179.508 50.9922C179.398 50.9609 179.263 50.9375 179.102 50.9219C178.945 50.9062 178.805 50.8984 178.68 50.8984C178.352 50.8984 178.039 50.9531 177.742 51.0625C177.445 51.1667 177.182 51.3281 176.953 51.5469C176.724 51.7604 176.544 52.0286 176.414 52.3516C176.284 52.6745 176.219 53.0495 176.219 53.4766V58H174.375V49.3516H175.812L176.062 50.875H176.148C176.32 50.5677 176.534 50.2865 176.789 50.0312C177.044 49.776 177.336 49.5729 177.664 49.4219C177.997 49.2656 178.362 49.1875 178.758 49.1875ZM184.188 58.1562C183.156 58.1562 182.328 57.7812 181.703 57.0312C181.083 56.276 180.773 55.1641 180.773 53.6953C180.773 52.2109 181.089 51.0885 181.719 50.3281C182.354 49.5677 183.19 49.1875 184.227 49.1875C184.664 49.1875 185.047 49.2474 185.375 49.3672C185.703 49.4818 185.984 49.638 186.219 49.8359C186.458 50.0339 186.661 50.2552 186.828 50.5H186.914C186.888 50.3385 186.857 50.1068 186.82 49.8047C186.789 49.4974 186.773 49.2135 186.773 48.9531V45.8438H188.617V58H187.18L186.852 56.8203H186.773C186.617 57.0703 186.419 57.2969 186.18 57.5C185.945 57.6979 185.664 57.8568 185.336 57.9766C185.013 58.0964 184.63 58.1562 184.188 58.1562ZM184.703 56.6641C185.49 56.6641 186.044 56.4375 186.367 55.9844C186.69 55.5312 186.857 54.8516 186.867 53.9453V53.7031C186.867 52.7344 186.711 51.9922 186.398 51.4766C186.086 50.9557 185.516 50.6953 184.688 50.6953C184.026 50.6953 183.521 50.9635 183.172 51.5C182.828 52.0312 182.656 52.7734 182.656 53.7266C182.656 54.6797 182.828 55.4089 183.172 55.9141C183.521 56.4141 184.031 56.6641 184.703 56.6641ZM197.242 45.8438V48.8984C197.242 49.2161 197.232 49.526 197.211 49.8281C197.195 50.1302 197.177 50.3646 197.156 50.5312H197.258C197.44 50.2292 197.664 49.9818 197.93 49.7891C198.195 49.5911 198.492 49.4427 198.82 49.3438C199.154 49.2448 199.508 49.1953 199.883 49.1953C200.544 49.1953 201.107 49.3073 201.57 49.5312C202.034 49.75 202.388 50.0911 202.633 50.5547C202.883 51.0182 203.008 51.6198 203.008 52.3594V58H201.172V52.7031C201.172 52.0312 201.034 51.5286 200.758 51.1953C200.482 50.8568 200.055 50.6875 199.477 50.6875C198.919 50.6875 198.477 50.8047 198.148 51.0391C197.826 51.2682 197.594 51.6094 197.453 52.0625C197.312 52.5104 197.242 53.0573 197.242 53.7031V58H195.406V45.8438H197.242ZM209.023 49.1875C209.794 49.1875 210.456 49.3464 211.008 49.6641C211.56 49.9818 211.984 50.4323 212.281 51.0156C212.578 51.599 212.727 52.2969 212.727 53.1094V54.0938H206.953C206.974 54.9323 207.198 55.5781 207.625 56.0312C208.057 56.4844 208.661 56.7109 209.438 56.7109C209.99 56.7109 210.484 56.6589 210.922 56.5547C211.365 56.4453 211.82 56.2865 212.289 56.0781V57.5703C211.857 57.7734 211.417 57.9219 210.969 58.0156C210.521 58.1094 209.984 58.1562 209.359 58.1562C208.51 58.1562 207.763 57.9922 207.117 57.6641C206.477 57.3307 205.974 56.8359 205.609 56.1797C205.25 55.5234 205.07 54.7083 205.07 53.7344C205.07 52.7656 205.234 51.9427 205.562 51.2656C205.891 50.5885 206.352 50.0729 206.945 49.7188C207.539 49.3646 208.232 49.1875 209.023 49.1875ZM209.023 50.5703C208.445 50.5703 207.977 50.7578 207.617 51.1328C207.263 51.5078 207.055 52.0573 206.992 52.7812H210.93C210.924 52.349 210.852 51.9661 210.711 51.6328C210.576 51.2995 210.367 51.0391 210.086 50.8516C209.81 50.6641 209.456 50.5703 209.023 50.5703ZM219.18 49.1875C219.326 49.1875 219.484 49.1953 219.656 49.2109C219.828 49.2266 219.977 49.2474 220.102 49.2734L219.93 50.9922C219.82 50.9609 219.685 50.9375 219.523 50.9219C219.367 50.9062 219.227 50.8984 219.102 50.8984C218.773 50.8984 218.461 50.9531 218.164 51.0625C217.867 51.1667 217.604 51.3281 217.375 51.5469C217.146 51.7604 216.966 52.0286 216.836 52.3516C216.706 52.6745 216.641 53.0495 216.641 53.4766V58H214.797V49.3516H216.234L216.484 50.875H216.57C216.742 50.5677 216.956 50.2865 217.211 50.0312C217.466 49.776 217.758 49.5729 218.086 49.4219C218.419 49.2656 218.784 49.1875 219.18 49.1875ZM225.148 49.1875C225.919 49.1875 226.581 49.3464 227.133 49.6641C227.685 49.9818 228.109 50.4323 228.406 51.0156C228.703 51.599 228.852 52.2969 228.852 53.1094V54.0938H223.078C223.099 54.9323 223.323 55.5781 223.75 56.0312C224.182 56.4844 224.786 56.7109 225.562 56.7109C226.115 56.7109 226.609 56.6589 227.047 56.5547C227.49 56.4453 227.945 56.2865 228.414 56.0781V57.5703C227.982 57.7734 227.542 57.9219 227.094 58.0156C226.646 58.1094 226.109 58.1562 225.484 58.1562C224.635 58.1562 223.888 57.9922 223.242 57.6641C222.602 57.3307 222.099 56.8359 221.734 56.1797C221.375 55.5234 221.195 54.7083 221.195 53.7344C221.195 52.7656 221.359 51.9427 221.688 51.2656C222.016 50.5885 222.477 50.0729 223.07 49.7188C223.664 49.3646 224.357 49.1875 225.148 49.1875ZM225.148 50.5703C224.57 50.5703 224.102 50.7578 223.742 51.1328C223.388 51.5078 223.18 52.0573 223.117 52.7812H227.055C227.049 52.349 226.977 51.9661 226.836 51.6328C226.701 51.2995 226.492 51.0391 226.211 50.8516C225.935 50.6641 225.581 50.5703 225.148 50.5703Z" fill="#7879F1"/>
</svg>
