<svg width="81" height="81" viewBox="0 0 81 81" fill="none" xmlns="http://www.w3.org/2000/svg">
<g clip-path="url(#clip0_2410_44)">
<path d="M21.5452 29C20.146 29 18.9998 30.1463 18.9998 31.5455V48.0909C18.9998 49.4901 20.146 50.6364 21.5452 50.6364H23.0156C22.9298 50.1123 22.8373 49.538 22.8242 49.0368C22.8242 46.7169 24.155 44.6365 26.1787 43.6314C25.6743 43.0256 25.3696 42.248 25.3696 41.4029C25.3696 39.4805 26.9439 37.9091 28.8671 37.9091C30.7904 37.9091 32.3634 39.4805 32.3634 41.4029C32.3634 42.2483 32.0587 43.0255 31.5543 43.6314C33.5787 44.6362 34.9088 46.7165 34.9088 49.0368C34.8779 49.638 34.8276 50.0623 34.6876 50.6364H44.4543C45.8535 50.6364 46.9998 49.4901 46.9998 48.0909V31.5455C46.9998 30.1463 45.8535 29 44.4543 29H21.5452ZM21.5452 30.2727H44.4543C45.1704 30.2727 45.727 30.8294 45.727 31.5455V34.0909H20.2725V31.5455C20.2725 30.8294 20.8291 30.2727 21.5452 30.2727ZM37.7638 37.9886L43.4911 41.1705C43.9287 41.4127 43.9287 42.0419 43.4911 42.2841L37.7638 45.4659C37.3393 45.7021 36.8174 45.3948 36.8179 44.9091V38.5455C36.8021 38.0154 37.3461 37.758 37.7638 37.9886ZM28.8671 39.1818C27.631 39.1818 26.6423 40.169 26.6423 41.4029C26.6423 42.6367 27.631 43.6239 28.8671 43.6239C30.1032 43.6239 31.0907 42.6367 31.0907 41.4029C31.0907 40.169 30.1032 39.1818 28.8671 39.1818ZM27.3222 44.53C25.3999 45.1859 24.0969 46.9883 24.0969 49.0368C24.1111 49.55 24.2231 50.1035 24.3032 50.6364H33.3962C33.544 50.0322 33.6071 49.5652 33.6361 49.0368C33.6361 46.9889 32.3339 45.1875 30.412 44.5312C29.9451 44.7633 29.4216 44.8967 28.8671 44.8967C28.3124 44.8967 27.7894 44.7622 27.3222 44.53Z" fill="#464366"/>
<path d="M25.3634 51.9091C24.1849 51.9091 23.1877 52.7249 22.9025 53.8182H18.9998V55.0909H22.9025C23.1877 56.1842 24.1849 57 25.3634 57C26.5422 57 27.5419 56.1847 27.8268 55.0909H46.9998V53.8182H27.8268C27.5419 52.7244 26.5422 51.9091 25.3634 51.9091Z" fill="#464366"/>
<path d="M43.1816 31.5455V32.8182H44.4543V31.5455H43.1816Z" fill="#464366"/>
<path d="M40.6361 31.5455V32.8182H41.9089V31.5455H40.6361Z" fill="#464366"/>
<path d="M38.0907 31.5455V32.8182H39.3634V31.5455H38.0907Z" fill="#464366"/>
<path d="M35.5452 31.5455V32.8182H36.8179V31.5455H35.5452Z" fill="#464366"/>
</g>
<g filter="url(#filter0_d_2410_44)">
<rect x="28.2468" y="14" width="24.7532" height="24.7532" rx="12.3766" fill="#5ECFFF"/>
</g>
<path d="M40.9478 32.154C40.5931 32.154 40.2104 32.126 39.7998 32.07C39.3891 32.0233 38.9924 31.9627 38.6098 31.888C38.2271 31.8133 37.9004 31.748 37.6298 31.692L37.7978 30.264C38.0498 30.3013 38.3484 30.348 38.6938 30.404C39.0391 30.4507 39.3938 30.488 39.7578 30.516C40.1218 30.544 40.4531 30.558 40.7518 30.558C41.2278 30.558 41.6058 30.4367 41.8858 30.194C42.1658 29.942 42.3058 29.578 42.3058 29.102C42.3058 28.7753 42.2451 28.5187 42.1238 28.332C42.0118 28.1453 41.8438 28.0147 41.6198 27.94C41.4051 27.856 41.1531 27.814 40.8638 27.814C40.6398 27.814 40.4158 27.8373 40.1918 27.884C39.9678 27.9213 39.7578 27.9727 39.5618 28.038C39.3658 28.094 39.2071 28.1547 39.0858 28.22L37.8258 28.024L38.0498 22.76H43.8318V24.454H39.5618L39.3798 26.512C39.5104 26.456 39.6738 26.4 39.8698 26.344C40.0658 26.2787 40.2758 26.2227 40.4998 26.176C40.7331 26.1293 40.9571 26.106 41.1718 26.106C41.8158 26.106 42.3618 26.1947 42.8098 26.372C43.2578 26.5493 43.5984 26.8433 43.8318 27.254C44.0744 27.6647 44.1958 28.2247 44.1958 28.934C44.1958 29.6713 44.0604 30.278 43.7898 30.754C43.5284 31.2207 43.1551 31.5707 42.6698 31.804C42.1938 32.0373 41.6198 32.154 40.9478 32.154Z" fill="#0D0B21"/>
<defs>
<filter id="filter0_d_2410_44" x="0.246826" y="0" width="80.7532" height="80.7532" filterUnits="userSpaceOnUse" color-interpolation-filters="sRGB">
<feFlood flood-opacity="0" result="BackgroundImageFix"/>
<feColorMatrix in="SourceAlpha" type="matrix" values="0 0 0 0 0 0 0 0 0 0 0 0 0 0 0 0 0 0 127 0" result="hardAlpha"/>
<feOffset dy="14"/>
<feGaussianBlur stdDeviation="14"/>
<feColorMatrix type="matrix" values="0 0 0 0 0.366667 0 0 0 0 0.810339 0 0 0 0 1 0 0 0 0.12 0"/>
<feBlend mode="normal" in2="BackgroundImageFix" result="effect1_dropShadow_2410_44"/>
<feBlend mode="normal" in="SourceGraphic" in2="effect1_dropShadow_2410_44" result="shape"/>
</filter>
<clipPath id="clip0_2410_44">
<rect width="28" height="28" fill="white" transform="translate(18.9998 29)"/>
</clipPath>
</defs>
</svg>
