<svg width="82" height="82" viewBox="0 0 82 82" fill="none" xmlns="http://www.w3.org/2000/svg">
<path d="M38.3334 38.3333V45.3333C38.3313 47.1892 37.5932 48.9685 36.2808 50.2808C34.9685 51.5931 33.1892 52.3313 31.3334 52.3333H24.3334C24.0239 52.3333 23.7272 52.4562 23.5084 52.675C23.2896 52.8938 23.1667 53.1905 23.1667 53.5C23.1667 53.8094 23.2896 54.1061 23.5084 54.3249C23.7272 54.5437 24.0239 54.6666 24.3334 54.6666H31.3334C33.8078 54.6638 36.1802 53.6795 37.9299 51.9298C39.6796 50.1801 40.6638 47.8078 40.6667 45.3333V38.3333C40.6667 38.0239 40.5438 37.7271 40.325 37.5083C40.1062 37.2895 39.8094 37.1666 39.5 37.1666C39.1906 37.1666 38.8939 37.2895 38.6751 37.5083C38.4563 37.7271 38.3334 38.0239 38.3334 38.3333Z" fill="#7879F1"/>
<path d="M31.3333 51.1667C32.8799 51.1649 34.3626 50.5497 35.4561 49.4562C36.5497 48.3626 37.1649 46.8799 37.1667 45.3334V37.1667C37.1649 35.6202 36.5497 34.1375 35.4561 33.0439C34.3626 31.9504 32.8799 31.3352 31.3333 31.3334H23.1667C21.6201 31.3352 20.1375 31.9504 19.0439 33.0439C17.9503 34.1375 17.3352 35.6202 17.3333 37.1667V45.3334C17.3352 46.8799 17.9503 48.3626 19.0439 49.4562C20.1375 50.5497 21.6201 51.1649 23.1667 51.1667H31.3333ZM24.1117 39.9832L25.603 42.0454L30.5408 37.4767C30.7681 37.2665 31.0695 37.1553 31.3788 37.1673C31.6881 37.1794 31.9799 37.3139 32.19 37.5411C32.4002 37.7683 32.5115 38.0697 32.4994 38.379C32.4873 38.6883 32.3529 38.9801 32.1256 39.1903L26.2218 44.652C26.1007 44.7641 25.9571 44.8491 25.8006 44.9016C25.6442 44.954 25.4783 44.9727 25.3141 44.9563C25.1499 44.94 24.991 44.889 24.848 44.8067C24.7049 44.7244 24.581 44.6127 24.4843 44.4789L22.2217 41.3503C22.0495 41.0993 21.9822 40.7909 22.0342 40.491C22.0862 40.1911 22.2533 39.9234 22.5 39.745C22.7466 39.5666 23.0532 39.4916 23.3543 39.5361C23.6554 39.5806 23.9272 39.7411 24.1117 39.9832Z" fill="#7879F1"/>
<g filter="url(#filter0_d_2410_37)">
<rect x="28" y="14" width="26" height="26" rx="13" fill="#5ECFFF"/>
</g>
<path d="M37.826 32V30.488L39.94 28.318C40.3413 27.9073 40.6867 27.548 40.976 27.24C41.2653 26.9227 41.4847 26.624 41.634 26.344C41.7927 26.064 41.872 25.7653 41.872 25.448C41.872 24.9813 41.7413 24.6687 41.48 24.51C41.2187 24.342 40.7987 24.258 40.22 24.258C39.9867 24.258 39.73 24.272 39.45 24.3C39.17 24.328 38.8993 24.3607 38.638 24.398C38.386 24.4353 38.1667 24.4727 37.98 24.51L37.882 23.026C38.0873 22.97 38.3393 22.9093 38.638 22.844C38.946 22.7787 39.2773 22.7227 39.632 22.676C39.996 22.62 40.3507 22.592 40.696 22.592C41.704 22.592 42.474 22.8067 43.006 23.236C43.538 23.656 43.804 24.3093 43.804 25.196C43.804 25.6813 43.734 26.1107 43.594 26.484C43.4633 26.8573 43.2533 27.2167 42.964 27.562C42.684 27.898 42.3107 28.2667 41.844 28.668L39.996 30.432H43.93V32H37.826Z" fill="#0D0B21"/>
<defs>
<filter id="filter0_d_2410_37" x="0" y="0" width="82" height="82" filterUnits="userSpaceOnUse" color-interpolation-filters="sRGB">
<feFlood flood-opacity="0" result="BackgroundImageFix"/>
<feColorMatrix in="SourceAlpha" type="matrix" values="0 0 0 0 0 0 0 0 0 0 0 0 0 0 0 0 0 0 127 0" result="hardAlpha"/>
<feOffset dy="14"/>
<feGaussianBlur stdDeviation="14"/>
<feColorMatrix type="matrix" values="0 0 0 0 0.366667 0 0 0 0 0.810339 0 0 0 0 1 0 0 0 0.12 0"/>
<feBlend mode="normal" in2="BackgroundImageFix" result="effect1_dropShadow_2410_37"/>
<feBlend mode="normal" in="SourceGraphic" in2="effect1_dropShadow_2410_37" result="shape"/>
</filter>
</defs>
</svg>
