<svg width="115" height="19" viewBox="0 0 115 19" fill="none" xmlns="http://www.w3.org/2000/svg">
<path d="M34.3018 9.90723C34.3018 11.0329 34.0921 11.974 33.6729 12.7305C33.2536 13.4824 32.6452 14.0498 31.8477 14.4326C31.0501 14.8109 30.0885 15 28.9629 15H26.1875V5.00586H29.2637C30.2982 5.00586 31.1914 5.19271 31.9434 5.56641C32.6953 5.93555 33.2764 6.4847 33.6865 7.21387C34.0967 7.93848 34.3018 8.83626 34.3018 9.90723ZM32.5928 9.95508C32.5928 9.13477 32.4629 8.46029 32.2031 7.93164C31.9479 7.40299 31.5697 7.01107 31.0684 6.75586C30.5716 6.49609 29.9587 6.36621 29.2295 6.36621H27.8281V13.626H28.9902C30.1979 13.626 31.1003 13.3184 31.6973 12.7031C32.2943 12.0879 32.5928 11.1719 32.5928 9.95508ZM42.8877 7.43262V15H41.623L41.4043 13.9814H41.3154C41.1559 14.2412 40.9531 14.4577 40.707 14.6309C40.4609 14.7995 40.1875 14.9248 39.8867 15.0068C39.5859 15.0934 39.2692 15.1367 38.9365 15.1367C38.3669 15.1367 37.8792 15.041 37.4736 14.8496C37.0726 14.6536 36.765 14.3529 36.5508 13.9473C36.3366 13.5417 36.2295 13.0176 36.2295 12.375V7.43262H37.8428V12.0742C37.8428 12.6621 37.9613 13.1019 38.1982 13.3936C38.4398 13.6852 38.8135 13.8311 39.3193 13.8311C39.807 13.8311 40.1943 13.7308 40.4814 13.5303C40.7686 13.3298 40.9714 13.0335 41.0898 12.6416C41.2129 12.2497 41.2744 11.7689 41.2744 11.1992V7.43262H42.8877ZM48.2061 7.28906C48.8805 7.28906 49.4593 7.42806 49.9424 7.70605C50.4255 7.98405 50.7969 8.37826 51.0566 8.88867C51.3164 9.39909 51.4463 10.0098 51.4463 10.7207V11.582H46.3945C46.4128 12.3158 46.6087 12.8809 46.9824 13.2773C47.3607 13.6738 47.8893 13.8721 48.5684 13.8721C49.0514 13.8721 49.4844 13.8265 49.8672 13.7354C50.2546 13.6396 50.6533 13.5007 51.0635 13.3184V14.624C50.6852 14.8018 50.3001 14.9316 49.9082 15.0137C49.5163 15.0957 49.0469 15.1367 48.5 15.1367C47.7572 15.1367 47.1032 14.9932 46.5381 14.7061C45.9775 14.4144 45.5378 13.9814 45.2188 13.4072C44.9043 12.833 44.7471 12.1198 44.7471 11.2676C44.7471 10.4199 44.8906 9.69987 45.1777 9.10742C45.4648 8.51497 45.8682 8.0638 46.3877 7.75391C46.9072 7.44401 47.5133 7.28906 48.2061 7.28906ZM48.2061 8.49902C47.7002 8.49902 47.29 8.66309 46.9756 8.99121C46.6657 9.31934 46.4834 9.80013 46.4287 10.4336H49.874C49.8695 10.0553 49.8057 9.72038 49.6826 9.42871C49.5641 9.13704 49.3818 8.90918 49.1357 8.74512C48.8942 8.58105 48.5843 8.49902 48.2061 8.49902ZM58.501 7.43262V15H56.8945V7.43262H58.501ZM57.708 4.53418C57.9541 4.53418 58.166 4.60026 58.3438 4.73242C58.526 4.86458 58.6172 5.09245 58.6172 5.41602C58.6172 5.73503 58.526 5.96289 58.3438 6.09961C58.166 6.23177 57.9541 6.29785 57.708 6.29785C57.4528 6.29785 57.2363 6.23177 57.0586 6.09961C56.8854 5.96289 56.7988 5.73503 56.7988 5.41602C56.7988 5.09245 56.8854 4.86458 57.0586 4.73242C57.2363 4.60026 57.4528 4.53418 57.708 4.53418ZM64.749 7.28906C65.6012 7.28906 66.2643 7.51009 66.7383 7.95215C67.2168 8.38965 67.4561 9.09375 67.4561 10.0645V15H65.8496V10.3652C65.8496 9.77734 65.7288 9.33757 65.4873 9.0459C65.2458 8.74967 64.8721 8.60156 64.3662 8.60156C63.6325 8.60156 63.1221 8.82715 62.835 9.27832C62.5524 9.72949 62.4111 10.3835 62.4111 11.2402V15H60.8047V7.43262H62.0557L62.2812 8.45801H62.3701C62.5342 8.19368 62.737 7.97721 62.9785 7.80859C63.2246 7.63542 63.498 7.50553 63.7988 7.41895C64.1042 7.33236 64.4209 7.28906 64.749 7.28906ZM79.9521 12.8057H78.5986V15H77.0127V12.8057H72.4668V11.5889L77.0332 4.97852H78.5986V11.4727H79.9521V12.8057ZM77.0127 11.4727V8.99121C77.0127 8.78613 77.015 8.57878 77.0195 8.36914C77.0286 8.15495 77.0378 7.94987 77.0469 7.75391C77.056 7.55794 77.0651 7.37793 77.0742 7.21387C77.0833 7.04525 77.0902 6.90625 77.0947 6.79688H77.04C76.9535 6.97917 76.8577 7.16602 76.7529 7.35742C76.6481 7.54427 76.5365 7.72656 76.418 7.9043L73.957 11.4727H77.0127ZM87.5332 15.1367C86.6309 15.1367 85.9062 14.8086 85.3594 14.1523C84.8171 13.4915 84.5459 12.5186 84.5459 11.2334C84.5459 9.93457 84.8216 8.95247 85.373 8.28711C85.929 7.62174 86.6605 7.28906 87.5674 7.28906C87.9502 7.28906 88.2852 7.34147 88.5723 7.44629C88.8594 7.54655 89.1055 7.68327 89.3105 7.85645C89.5202 8.02962 89.6979 8.22331 89.8438 8.4375H89.9189C89.8962 8.29622 89.8688 8.09342 89.8369 7.8291C89.8096 7.56022 89.7959 7.31185 89.7959 7.08398V4.36328H91.4092V15H90.1514L89.8643 13.9678H89.7959C89.6592 14.1865 89.486 14.3848 89.2764 14.5625C89.0713 14.7357 88.8252 14.8747 88.5381 14.9795C88.2555 15.0843 87.9206 15.1367 87.5332 15.1367ZM87.9844 13.8311C88.6725 13.8311 89.1579 13.6328 89.4404 13.2363C89.723 12.8398 89.8688 12.2451 89.8779 11.4521V11.2402C89.8779 10.3926 89.7412 9.74316 89.4678 9.29199C89.1943 8.83626 88.6953 8.6084 87.9707 8.6084C87.3919 8.6084 86.9499 8.8431 86.6445 9.3125C86.3438 9.77734 86.1934 10.4268 86.1934 11.2607C86.1934 12.0947 86.3438 12.7327 86.6445 13.1748C86.9499 13.6123 87.3965 13.8311 87.9844 13.8311ZM96.6797 7.28906C97.6367 7.28906 98.359 7.50098 98.8467 7.9248C99.3389 8.34863 99.585 9.00944 99.585 9.90723V15H98.4434L98.1357 13.9268H98.0811C97.8669 14.2002 97.6458 14.4258 97.418 14.6035C97.1901 14.7812 96.9258 14.9134 96.625 15C96.3288 15.0911 95.9665 15.1367 95.5381 15.1367C95.0869 15.1367 94.6836 15.0547 94.3281 14.8906C93.9727 14.722 93.6924 14.4668 93.4873 14.125C93.2822 13.7832 93.1797 13.3503 93.1797 12.8262C93.1797 12.0469 93.4691 11.4613 94.0479 11.0693C94.6312 10.6774 95.5107 10.4609 96.6865 10.4199L97.999 10.3721V9.97559C97.999 9.4515 97.876 9.0778 97.6299 8.85449C97.3883 8.63118 97.0465 8.51953 96.6045 8.51953C96.2262 8.51953 95.8594 8.57422 95.5039 8.68359C95.1484 8.79297 94.8021 8.92741 94.4648 9.08691L93.9453 7.95215C94.3145 7.75618 94.7337 7.59668 95.2031 7.47363C95.6771 7.35059 96.1693 7.28906 96.6797 7.28906ZM97.9922 11.3838L97.0146 11.418C96.2126 11.4453 95.6497 11.582 95.3262 11.8281C95.0026 12.0742 94.8408 12.4115 94.8408 12.8398C94.8408 13.2135 94.9525 13.487 95.1758 13.6602C95.3991 13.8288 95.693 13.9131 96.0576 13.9131C96.6136 13.9131 97.0739 13.7559 97.4385 13.4414C97.8076 13.1224 97.9922 12.6553 97.9922 12.04V11.3838ZM100.692 7.43262H102.442L103.994 11.7529C104.062 11.9489 104.124 12.1426 104.179 12.334C104.238 12.5208 104.288 12.7054 104.329 12.8877C104.375 13.07 104.411 13.2523 104.438 13.4346H104.479C104.525 13.1976 104.589 12.9333 104.671 12.6416C104.757 12.3454 104.853 12.0492 104.958 11.7529L106.448 7.43262H108.178L104.931 16.0391C104.744 16.5312 104.514 16.9505 104.24 17.2969C103.971 17.6478 103.652 17.9121 103.283 18.0898C102.914 18.2721 102.493 18.3633 102.019 18.3633C101.791 18.3633 101.592 18.3496 101.424 18.3223C101.255 18.2995 101.112 18.2744 100.993 18.2471V16.9619C101.089 16.9847 101.21 17.0052 101.355 17.0234C101.501 17.0417 101.652 17.0508 101.807 17.0508C102.094 17.0508 102.342 16.9938 102.552 16.8799C102.761 16.766 102.939 16.6042 103.085 16.3945C103.231 16.1895 103.352 15.9548 103.447 15.6904L103.714 14.9795L100.692 7.43262ZM114.412 12.8398C114.412 13.3366 114.291 13.7559 114.05 14.0977C113.808 14.4395 113.455 14.6992 112.99 14.877C112.53 15.0501 111.965 15.1367 111.295 15.1367C110.766 15.1367 110.311 15.098 109.928 15.0205C109.549 14.9476 109.192 14.8337 108.854 14.6787V13.291C109.215 13.4596 109.618 13.6055 110.064 13.7285C110.516 13.8516 110.942 13.9131 111.343 13.9131C111.871 13.9131 112.252 13.8311 112.484 13.667C112.717 13.4984 112.833 13.2751 112.833 12.9971C112.833 12.833 112.785 12.6872 112.689 12.5596C112.598 12.4274 112.425 12.293 112.17 12.1562C111.919 12.015 111.55 11.8464 111.062 11.6504C110.584 11.459 110.181 11.2676 109.853 11.0762C109.524 10.8848 109.276 10.6546 109.107 10.3857C108.939 10.1123 108.854 9.76367 108.854 9.33984C108.854 8.66992 109.119 8.16178 109.647 7.81543C110.181 7.46452 110.885 7.28906 111.76 7.28906C112.225 7.28906 112.662 7.33691 113.072 7.43262C113.487 7.52376 113.893 7.6582 114.289 7.83594L113.783 9.0459C113.441 8.89551 113.097 8.77246 112.751 8.67676C112.409 8.5765 112.061 8.52637 111.705 8.52637C111.29 8.52637 110.974 8.59017 110.755 8.71777C110.541 8.84538 110.434 9.02767 110.434 9.26465C110.434 9.44238 110.486 9.59277 110.591 9.71582C110.696 9.83887 110.876 9.96191 111.131 10.085C111.391 10.208 111.751 10.3607 112.211 10.543C112.662 10.7161 113.052 10.8984 113.38 11.0898C113.713 11.2767 113.968 11.5068 114.146 11.7803C114.323 12.0537 114.412 12.4069 114.412 12.8398Z" fill="#A5A5A5"/>
<g clip-path="url(#clip0_1_338)">
<path d="M7.99996 2.66662C6.54957 2.66662 5.13174 3.09671 3.92578 3.90251C2.71982 4.70831 1.77989 5.85362 1.22485 7.19361C0.669803 8.5336 0.524579 10.0081 0.807537 11.4306C1.0905 12.8531 1.78893 14.1598 2.81451 15.1854C3.8401 16.211 5.14677 16.9094 6.5693 17.1924C7.99183 17.4753 9.46632 17.3301 10.8063 16.7751C12.1463 16.22 13.2916 15.2801 14.0974 14.0741C14.9032 12.8682 15.3333 11.4504 15.3333 9.99996C15.331 8.05574 14.5576 6.19181 13.1829 4.81704C11.8081 3.44227 9.94418 2.66892 7.99996 2.66662ZM7.99996 16C6.81327 16 5.65324 15.6481 4.66654 14.9888C3.67985 14.3295 2.91081 13.3924 2.45669 12.2961C2.00256 11.1997 1.88374 9.9933 2.11525 8.82941C2.34676 7.66553 2.91821 6.59643 3.75732 5.75731C4.59644 4.9182 5.66553 4.34676 6.82942 4.11524C7.99331 3.88373 9.19971 4.00255 10.2961 4.45668C11.3924 4.9108 12.3295 5.67984 12.9888 6.66653C13.6481 7.65323 14 8.81327 14 9.99996C13.998 11.5907 13.3653 13.1157 12.2405 14.2405C11.1157 15.3653 9.59066 15.998 7.99996 16Z" fill="#A5A5A5"/>
<path d="M8.66671 9.72403V6.00004C8.66671 5.82323 8.59647 5.65366 8.47144 5.52863C8.34642 5.40361 8.17685 5.33337 8.00004 5.33337C7.82323 5.33337 7.65366 5.40361 7.52864 5.52863C7.40361 5.65366 7.33337 5.82323 7.33337 6.00004V10C7.33341 10.1768 7.40367 10.3464 7.52871 10.4714L9.52871 12.4714C9.65444 12.5928 9.82284 12.66 9.99764 12.6585C10.1724 12.657 10.3396 12.5868 10.4633 12.4632C10.5869 12.3396 10.657 12.1724 10.6585 11.9976C10.66 11.8228 10.5928 11.6544 10.4714 11.5287L8.66671 9.72403Z" fill="#A5A5A5"/>
</g>
<defs>
<clipPath id="clip0_1_338">
<rect width="16" height="16" fill="white" transform="translate(0 2)"/>
</clipPath>
</defs>
</svg>
