<svg width="88" height="88" viewBox="0 0 88 88" fill="none" xmlns="http://www.w3.org/2000/svg">
<path d="M34.3466 39.0083L33.775 37.2933C33.6947 37.0629 33.5451 36.8629 33.3466 36.7209C33.1482 36.5789 32.9107 36.5017 32.6666 36.5H26.8333C25.9059 36.5027 25.0172 36.8723 24.3614 37.5281C23.7056 38.1839 23.336 39.0726 23.3333 40V42.3333H31.0216L34.3466 39.0083Z" fill="#7879F1"/>
<path d="M43.1666 40H36.6566L32.3283 44.3283C32.1059 44.5433 31.8093 44.6644 31.5 44.6667H23.3333V54C23.336 54.9274 23.7056 55.8161 24.3614 56.4719C25.0172 57.1277 25.9059 57.4973 26.8333 57.5H43.1666C44.0941 57.4973 44.9827 57.1277 45.6385 56.4719C46.2943 55.8161 46.6639 54.9274 46.6666 54V43.5C46.6639 42.5726 46.2943 41.6839 45.6385 41.0281C44.9827 40.3723 44.0941 40.0027 43.1666 40Z" fill="#7879F1"/>
<g filter="url(#filter0_d_2410_30)">
<rect x="31" y="17" width="26" height="26" rx="13" fill="#E328AF"/>
<rect x="29.5" y="15.5" width="29" height="29" rx="14.5" stroke="#15132B" stroke-width="3"/>
</g>
<path d="M42.98 31.71L42.84 25.438H44.856L44.73 31.71H42.98ZM42.882 35V32.942H44.828V35H42.882Z" fill="#0D0B21"/>
<defs>
<filter id="filter0_d_2410_30" x="0" y="0" width="88" height="88" filterUnits="userSpaceOnUse" color-interpolation-filters="sRGB">
<feFlood flood-opacity="0" result="BackgroundImageFix"/>
<feColorMatrix in="SourceAlpha" type="matrix" values="0 0 0 0 0 0 0 0 0 0 0 0 0 0 0 0 0 0 127 0" result="hardAlpha"/>
<feOffset dy="14"/>
<feGaussianBlur stdDeviation="14"/>
<feColorMatrix type="matrix" values="0 0 0 0 0.366667 0 0 0 0 0.810339 0 0 0 0 1 0 0 0 0.12 0"/>
<feBlend mode="normal" in2="BackgroundImageFix" result="effect1_dropShadow_2410_30"/>
<feBlend mode="normal" in="SourceGraphic" in2="effect1_dropShadow_2410_30" result="shape"/>
</filter>
</defs>
</svg>
