 <svg width="82" height="82" viewBox="0 0 82 82" fill="none" xmlns="http://www.w3.org/2000/svg">
    <path d="M40.4707 48.1862L38.3333 44.9802V40.6667C38.3333 38.1914 37.35 35.8174 35.5997 34.067C33.8493 32.3167 31.4753 31.3334 29 31.3334C26.5246 31.3334 24.1507 32.3167 22.4003 34.067C20.65 35.8174 19.6667 38.1914 19.6667 40.6667V44.9802L17.5293 48.1862C17.4126 48.362 17.3456 48.5661 17.3356 48.7769C17.3256 48.9877 17.3729 49.1972 17.4724 49.3833C17.572 49.5693 17.7201 49.7249 17.9011 49.8335C18.082 49.9421 18.289 49.9997 18.5 50H39.5C39.711 49.9997 39.918 49.9421 40.0989 49.8335C40.2798 49.7249 40.428 49.5693 40.5275 49.3833C40.6271 49.1972 40.6744 48.9877 40.6644 48.7769C40.6544 48.5661 40.5874 48.362 40.4707 48.1862Z" fill="#7879F1"/>
    <path d="M29 54.6666C30.0344 54.6675 31.0397 54.324 31.8572 53.6903C32.6748 53.0565 33.258 52.1686 33.515 51.1666H24.485C24.742 52.1686 25.3252 53.0565 26.1428 53.6903C26.9603 54.324 27.9656 54.6675 29 54.6666Z" fill="#7879F1"/>
    <g filter="url(#filter0_d_2410_58)">
    <rect x="28" y="14" width="26" height="26" rx="13" fill="#5ECFFF"/>
    </g>
    <path d="M36.962 32V24.832L34.778 26.092L34.134 24.706L37.2 22.76H38.866V32H36.962ZM41.6053 32V30.488L43.7193 28.318C44.1206 27.9073 44.466 27.548 44.7553 27.24C45.0446 26.9227 45.264 26.624 45.4133 26.344C45.572 26.064 45.6513 25.7653 45.6513 25.448C45.6513 24.9813 45.5206 24.6687 45.2593 24.51C44.998 24.342 44.578 24.258 43.9993 24.258C43.766 24.258 43.5093 24.272 43.2293 24.3C42.9493 24.328 42.6786 24.3607 42.4173 24.398C42.1653 24.4353 41.946 24.4727 41.7593 24.51L41.6613 23.026C41.8666 22.97 42.1186 22.9093 42.4173 22.844C42.7253 22.7787 43.0566 22.7227 43.4113 22.676C43.7753 22.62 44.13 22.592 44.4753 22.592C45.4833 22.592 46.2533 22.8067 46.7853 23.236C47.3173 23.656 47.5833 24.3093 47.5833 25.196C47.5833 25.6813 47.5133 26.1107 47.3733 26.484C47.2426 26.8573 47.0326 27.2167 46.7433 27.562C46.4633 27.898 46.09 28.2667 45.6233 28.668L43.7753 30.432H47.7093V32H41.6053Z" fill="#0D0B21"/>
    <defs>
    <filter id="filter0_d_2410_58" x="0" y="0" width="82" height="82" filterUnits="userSpaceOnUse" color-interpolation-filters="sRGB">
    <feFlood flood-opacity="0" result="BackgroundImageFix"/>
    <feColorMatrix in="SourceAlpha" type="matrix" values="0 0 0 0 0 0 0 0 0 0 0 0 0 0 0 0 0 0 127 0" result="hardAlpha"/>
    <feOffset dy="14"/>
    <feGaussianBlur stdDeviation="14"/>
    <feColorMatrix type="matrix" values="0 0 0 0 0.366667 0 0 0 0 0.810339 0 0 0 0 1 0 0 0 0.12 0"/>
    <feBlend mode="normal" in2="BackgroundImageFix" result="effect1_dropShadow_2410_58"/>
    <feBlend mode="normal" in="SourceGraphic" in2="effect1_dropShadow_2410_58" result="shape"/>
    </filter>
    </defs>
</svg>
